# xmcd CD database file
# Copyright (C) 1993-1998 Ti Kan
#
# Track frame offsets:
#	150
#	12780
#	21950
#	32470
#	46815
#	58097
#	77750
#	90600
#	100715
#	110265
#	120197
#	128960
#	141752
#	151615
#	162720
#	174225
#	192545
#	205075
#	220285
#	233920
#	242970
#	258142
#	272032
#	282237
#	299567
#
# Disc length: 4188 seconds
#
# Revision: 1
# Processed by: cddbd v1.4b41PL1 Copyright (c) Steve Scherf et al.
# Submitted via: EasyCD 2.21 - (C) 1996 Greg Leichner
#
DISCID=59105a19
DTITLE=Marty Robbins - A Man And His Music
DYEAR=1900
DGENRE=
TTITLE0=I'm So Lonesome I Could Cry
TTITLE1=Moanin' The Blues
TTITLE2=Banquet Of Roses
TTITLE3=Have I Told You Lately That I Love You
TTITLE4=Kaw-Liga
TTITLE5=El Pas
TTITLE6=Streets Of Larado
TTITLE7=I Can't Help It (If I'm Still In Love With You)
TTITLE8=Half As Much
TTITLE9=Pennies From Heaven
TTITLE10=On The Sunny Side Of The Street
TTITLE11=Maria Elena
TTITLE12=Answer My Love
TTITLE13=Singing The Blues
TTITLE14=A White Sport Coat
TTITLE15=Hello Heartache
TTITLE16=Am I That Easy To Forget
TTITLE17=As Time Goes By
TTITLE18=La Paloma
TTITLE19=You Belong To Me
TTITLE20=I Walk Alone
TTITLE21=The Hands You're Holding Now
TTITLE22=I Can't Help Falling In Love (With You)
TTITLE23=Three Little Words
TTITLE24=Teardrops In My Heart
EXTD=
EXTT0=
EXTT1=
EXTT2=
EXTT3=
EXTT4=
EXTT5=
EXTT6=
EXTT7=
EXTT8=
EXTT9=
EXTT10=
EXTT11=
EXTT12=
EXTT13=
EXTT14=
EXTT15=
EXTT16=
EXTT17=
EXTT18=
EXTT19=
EXTT20=
EXTT21=
EXTT22=
EXTT23=
EXTT24=
PLAYORDER=
